<svg class="animated" id="freepik_stories-videographer" xmlns="http://www.w3.org/2000/svg" viewBox="0 0 500 500" version="1.1" xmlns:xlink="http://www.w3.org/1999/xlink" xmlns:svgjs="http://svgjs.com/svgjs"><style>svg#freepik_stories-videographer:not(.animated) .animable {opacity: 0;}svg#freepik_stories-videographer.animated #freepik--background-simple--inject-9 {animation: 1.5s Infinite  linear heartbeat;animation-delay: 0s;}svg#freepik_stories-videographer.animated #freepik--Character--inject-9 {animation: 1.5s Infinite  linear shake;animation-delay: 0s;}            @keyframes heartbeat {                0% {                    transform: scale(1);                }                10% {                    transform: scale(1.1);                }                30% {                    transform: scale(1);                }                40% {                    transform: scale(1);                }                50% {                    transform: scale(1.1);                }                60% {                    transform: scale(1);                }                100% {                    transform: scale(1);                }            }                    @keyframes shake {                10%, 90% {                    transform: translate3d(-1px, 0, 0);                  }                  20%, 80% {                    transform: translate3d(2px, 0, 0);                  }                  30%, 50%, 70% {                    transform: translate3d(-4px, 0, 0);                  }                  40%, 60% {                    transform: translate3d(4px, 0, 0);                  }            }        </style><g id="freepik--background-simple--inject-9" class="animable animator-active" style="transform-origin: 256.143px 228.159px;"><path d="M54.32,214.29s-6.55,56.64,37.91,96.38S191.32,344,237.74,353.35c24.31,4.91,43.59,22.83,66.19,32.69C376.2,417.56,454,356.21,458,293.6c3.51-54.21-23.15-102.06-81.52-149.14S278.65,62.2,197.58,61.74,66.19,142.07,54.32,214.29Z" style="fill: rgb(218, 217, 146); transform-origin: 256.143px 228.159px;" id="elxxo6mgy53zn" class="animable"></path><g id="eln7z691rm16"><path d="M54.32,214.29s-6.55,56.64,37.91,96.38S191.32,344,237.74,353.35c24.31,4.91,43.59,22.83,66.19,32.69C376.2,417.56,454,356.21,458,293.6c3.51-54.21-23.15-102.06-81.52-149.14S278.65,62.2,197.58,61.74,66.19,142.07,54.32,214.29Z" style="fill: rgb(255, 255, 255); opacity: 0.8; transform-origin: 256.143px 228.159px;" class="animable"></path></g></g><g id="freepik--Clouds--inject-9" class="animable" style="transform-origin: 186.217px 149.717px;"><g id="el5b0yin9rk6f"><path d="M205.9,201.17c-5-2.72-7.25-.45-9.06-2.72s5-8.15-8.6-14c0,0-.91-12.68-19.47-13.13S155.18,184,150.2,187.13s-6.34-1.81-11.32,1.36-2.71,9.51-6.79,10.42-9.51-4.08-14.49-.91-5,5.89-7.24,5.89-6.79-1.81-9.51,0S95,208,95,208H209.52S210.88,203.89,205.9,201.17Z" style="fill: none; stroke: rgb(38, 50, 56); stroke-miterlimit: 10; stroke-width: 1.10118px; opacity: 0.8; transform-origin: 152.345px 189.654px;" class="animable"></path></g><g id="elws4dp6yhim"><path d="M125,182.92c-2.2-1.21-3.2-.21-4-1.21s2.2-3.6-3.81-6.21c0,0-.4-5.61-8.61-5.81s-6,5.61-8.22,7-2.8-.8-5,.61-1.2,4.2-3,4.6-4.21-1.8-6.41-.4-2.21,2.61-3.21,2.61-3-.8-4.21,0-2.6,1.8-2.6,1.8h50.69S127.22,184.12,125,182.92Z" style="fill: none; stroke: rgb(38, 50, 56); stroke-miterlimit: 10; stroke-width: 1.10118px; opacity: 0.8; transform-origin: 101.312px 177.797px;" class="animable"></path></g><g id="eloy59y0864tq"><path d="M294.81,104.67c-2.2-1.2-3.21-.2-4-1.2s2.21-3.61-3.8-6.22c0,0-.41-5.6-8.62-5.81s-6,5.61-8.21,7-2.81-.8-5,.6-1.21,4.21-3,4.61-4.21-1.81-6.41-.4-2.2,2.6-3.21,2.6-3-.8-4.2,0-2.61,1.8-2.61,1.8h50.69S297,105.87,294.81,104.67Z" style="fill: none; stroke: rgb(38, 50, 56); stroke-miterlimit: 10; stroke-width: 1.10118px; opacity: 0.8; transform-origin: 271.127px 99.5422px;" class="animable"></path></g></g><g id="freepik--Buildings--inject-9" class="animable" style="transform-origin: 251.96px 262.13px;"><line x1="60.83" y1="358.5" x2="443.09" y2="358.5" style="fill: none; stroke: rgb(38, 50, 56); stroke-miterlimit: 10; stroke-width: 1.10118px; transform-origin: 251.96px 358.5px;" id="elo8yj0ppo989" class="animable"></line><polyline points="443.09 312.31 413.83 312.31 413.83 298.77 398.73 298.77 398.73 272.49 377.02 272.49 377.02 165.76 356.26 165.76 356.26 230.28 337.38 230.28 337.38 207.18 311.9 207.18 311.9 266.91 301.52 266.91 301.52 286.03 276.98 286.03 276.98 278.86 284.53 278.86 284.53 274.88 253.38 274.88 253.38 279.66 257.16 279.66 257.16 300.36 241.11 300.36 241.11 261.34 224.12 261.34 224.12 289.21 183.53 289.21 183.53 268.5 168.43 268.5 168.43 291.6 136.34 291.6 136.34 249.39 123.13 249.39 123.13 235.06 99.53 235.06 99.53 300.36 75.93 300.36 75.93 314.7 60.83 314.7" style="fill: none; stroke: rgb(38, 50, 56); stroke-miterlimit: 10; stroke-width: 1.10118px; transform-origin: 251.96px 240.23px;" id="eldhi5izshzy" class="animable"></polyline><rect x="103.7" y="249.2" width="5.1" height="5.1" style="fill: rgb(38, 50, 56); transform-origin: 106.25px 251.75px;" id="elvxn72woqfi" class="animable"></rect><rect x="114.33" y="249.2" width="5.1" height="5.1" style="fill: rgb(38, 50, 56); transform-origin: 116.88px 251.75px;" id="el4rggy3h7y9q" class="animable"></rect><rect x="103.7" y="259.83" width="5.1" height="5.1" style="fill: rgb(38, 50, 56); transform-origin: 106.25px 262.38px;" id="eld28qw2ttbdt" class="animable"></rect><rect x="114.33" y="259.83" width="5.1" height="5.1" style="fill: rgb(38, 50, 56); transform-origin: 116.88px 262.38px;" id="elppeyv661hd" class="animable"></rect><rect x="125.82" y="259.83" width="5.1" height="5.1" style="fill: rgb(38, 50, 56); transform-origin: 128.37px 262.38px;" id="ele1kkbd0gpw" class="animable"></rect><rect x="125.82" y="270.47" width="5.1" height="5.1" style="fill: rgb(38, 50, 56); transform-origin: 128.37px 273.02px;" id="el9krhv45pha" class="animable"></rect><rect x="125.82" y="281.1" width="5.1" height="5.1" style="fill: rgb(38, 50, 56); transform-origin: 128.37px 283.65px;" id="elye0e78b769" class="animable"></rect><rect x="125.82" y="291.73" width="5.1" height="5.1" style="fill: rgb(38, 50, 56); transform-origin: 128.37px 294.28px;" id="elofwfsrxoqa" class="animable"></rect><rect x="125.82" y="302.36" width="5.1" height="5.1" style="fill: rgb(38, 50, 56); transform-origin: 128.37px 304.91px;" id="el88k2kbnoyyx" class="animable"></rect><rect x="125.82" y="313" width="5.1" height="5.1" style="fill: rgb(38, 50, 56); transform-origin: 128.37px 315.55px;" id="elrikk7n71z8o" class="animable"></rect><rect x="103.7" y="270.47" width="5.1" height="5.1" style="fill: rgb(38, 50, 56); transform-origin: 106.25px 273.02px;" id="el0v7hm7kt8dxd" class="animable"></rect><rect x="114.33" y="270.47" width="5.1" height="5.1" style="fill: rgb(38, 50, 56); transform-origin: 116.88px 273.02px;" id="elak9orezj0pb" class="animable"></rect><rect x="103.7" y="281.1" width="5.1" height="5.1" style="fill: rgb(38, 50, 56); transform-origin: 106.25px 283.65px;" id="elhg7g3tmzp4" class="animable"></rect><rect x="114.33" y="281.1" width="5.1" height="5.1" style="fill: rgb(38, 50, 56); transform-origin: 116.88px 283.65px;" id="el1lfde184rxx" class="animable"></rect><rect x="103.7" y="291.73" width="5.1" height="5.1" style="fill: rgb(38, 50, 56); transform-origin: 106.25px 294.28px;" id="elk2npixjnrag" class="animable"></rect><rect x="114.33" y="291.73" width="5.1" height="5.1" style="fill: rgb(38, 50, 56); transform-origin: 116.88px 294.28px;" id="elxacxcvpninl" class="animable"></rect><rect x="103.7" y="302.36" width="5.1" height="5.1" style="fill: rgb(38, 50, 56); transform-origin: 106.25px 304.91px;" id="elbfmwqnv2e8u" class="animable"></rect><rect x="80.31" y="308.32" width="5.1" height="5.1" style="fill: rgb(38, 50, 56); transform-origin: 82.86px 310.87px;" id="ell3s385tbkhb" class="animable"></rect><rect x="153.89" y="296.83" width="5.1" height="5.1" style="fill: rgb(38, 50, 56); transform-origin: 156.44px 299.38px;" id="elwbssdwh1fds" class="animable"></rect><rect x="164.09" y="296.83" width="5.1" height="5.1" style="fill: rgb(38, 50, 56); transform-origin: 166.64px 299.38px;" id="elyeg7dszcam" class="animable"></rect><rect x="359.65" y="171.79" width="5.1" height="5.1" style="fill: rgb(38, 50, 56); transform-origin: 362.2px 174.34px;" id="elpo6ifkkyi8f" class="animable"></rect><rect x="366.03" y="171.79" width="5.1" height="5.1" style="fill: rgb(38, 50, 56); transform-origin: 368.58px 174.34px;" id="elqf8xnthuaca" class="animable"></rect><rect x="359.65" y="182.43" width="5.1" height="5.1" style="fill: rgb(38, 50, 56); transform-origin: 362.2px 184.98px;" id="el02rnuvbnh4jf" class="animable"></rect><rect x="366.03" y="182.43" width="5.1" height="5.1" style="fill: rgb(38, 50, 56); transform-origin: 368.58px 184.98px;" id="ely3lxhksn8wd" class="animable"></rect><rect x="359.65" y="193.06" width="5.1" height="5.1" style="fill: rgb(38, 50, 56); transform-origin: 362.2px 195.61px;" id="elai88t8eud6q" class="animable"></rect><rect x="366.03" y="193.06" width="5.1" height="5.1" style="fill: rgb(38, 50, 56); transform-origin: 368.58px 195.61px;" id="el0cb2c38lp2fs" class="animable"></rect><rect x="359.65" y="203.69" width="5.1" height="5.1" style="fill: rgb(38, 50, 56); transform-origin: 362.2px 206.24px;" id="elseqgnvfqgcf" class="animable"></rect><rect x="366.03" y="203.69" width="5.1" height="5.1" style="fill: rgb(38, 50, 56); transform-origin: 368.58px 206.24px;" id="elteb4dokiw0a" class="animable"></rect><rect x="359.65" y="214.32" width="5.1" height="5.1" style="fill: rgb(38, 50, 56); transform-origin: 362.2px 216.87px;" id="elca9mxnm1l0m" class="animable"></rect><rect x="366.03" y="214.32" width="5.1" height="5.1" style="fill: rgb(38, 50, 56); transform-origin: 368.58px 216.87px;" id="elbyaojhtbn2i" class="animable"></rect><rect x="359.65" y="224.96" width="5.1" height="5.1" style="fill: rgb(38, 50, 56); transform-origin: 362.2px 227.51px;" id="elfx9vv0856hv" class="animable"></rect><rect x="366.03" y="224.96" width="5.1" height="5.1" style="fill: rgb(38, 50, 56); transform-origin: 368.58px 227.51px;" id="elvoxxp9o38rl" class="animable"></rect><rect x="359.65" y="235.59" width="5.1" height="5.1" style="fill: rgb(38, 50, 56); transform-origin: 362.2px 238.14px;" id="eln901pkdqndf" class="animable"></rect><rect x="366.03" y="235.59" width="5.1" height="5.1" style="fill: rgb(38, 50, 56); transform-origin: 368.58px 238.14px;" id="elqpe9amjt2yr" class="animable"></rect><rect x="359.65" y="246.22" width="5.1" height="5.1" style="fill: rgb(38, 50, 56); transform-origin: 362.2px 248.77px;" id="elzajm6258kzg" class="animable"></rect><rect x="366.03" y="246.22" width="5.1" height="5.1" style="fill: rgb(38, 50, 56); transform-origin: 368.58px 248.77px;" id="elvfbzf4x8ew" class="animable"></rect><rect x="359.65" y="256.86" width="5.1" height="5.1" style="fill: rgb(38, 50, 56); transform-origin: 362.2px 259.41px;" id="el36921lw3n82" class="animable"></rect><rect x="366.03" y="256.86" width="5.1" height="5.1" style="fill: rgb(38, 50, 56); transform-origin: 368.58px 259.41px;" id="elzyylbn50b2" class="animable"></rect><rect x="316.27" y="256.86" width="5.1" height="5.1" style="fill: rgb(38, 50, 56); transform-origin: 318.82px 259.41px;" id="el4o07qhh1c94" class="animable"></rect><rect x="327.33" y="256.86" width="5.1" height="5.1" style="fill: rgb(38, 50, 56); transform-origin: 329.88px 259.41px;" id="elg74wx86hawc" class="animable"></rect><rect x="338.39" y="256.86" width="5.1" height="5.1" style="fill: rgb(38, 50, 56); transform-origin: 340.94px 259.41px;" id="elylngbyos2va" class="animable"></rect><rect x="316.27" y="279.82" width="5.1" height="5.1" style="fill: rgb(38, 50, 56); transform-origin: 318.82px 282.37px;" id="el61nxwkbw6j6" class="animable"></rect><rect x="327.33" y="279.82" width="5.1" height="5.1" style="fill: rgb(38, 50, 56); transform-origin: 329.88px 282.37px;" id="ely9havku1byp" class="animable"></rect><rect x="338.39" y="279.82" width="5.1" height="5.1" style="fill: rgb(38, 50, 56); transform-origin: 340.94px 282.37px;" id="el4p04llbr7tb" class="animable"></rect><rect x="316.27" y="302.79" width="5.1" height="5.1" style="fill: rgb(38, 50, 56); transform-origin: 318.82px 305.34px;" id="elzc3oi0iejtj" class="animable"></rect><rect x="327.33" y="302.79" width="5.1" height="5.1" style="fill: rgb(38, 50, 56); transform-origin: 329.88px 305.34px;" id="elq62uqlz98s" class="animable"></rect><rect x="338.39" y="302.79" width="5.1" height="5.1" style="fill: rgb(38, 50, 56); transform-origin: 340.94px 305.34px;" id="elhgapujnx0f" class="animable"></rect><rect x="359.65" y="267.49" width="5.1" height="5.1" style="fill: rgb(38, 50, 56); transform-origin: 362.2px 270.04px;" id="ele46pyhby21" class="animable"></rect><rect x="366.03" y="267.49" width="5.1" height="5.1" style="fill: rgb(38, 50, 56); transform-origin: 368.58px 270.04px;" id="elf02epy86j7p" class="animable"></rect><rect x="359.65" y="278.12" width="5.1" height="5.1" style="fill: rgb(38, 50, 56); transform-origin: 362.2px 280.67px;" id="elnkueig6pzjo" class="animable"></rect><rect x="366.03" y="278.12" width="5.1" height="5.1" style="fill: rgb(38, 50, 56); transform-origin: 368.58px 280.67px;" id="el4721d7hf41x" class="animable"></rect><rect x="359.65" y="288.75" width="5.1" height="5.1" style="fill: rgb(38, 50, 56); transform-origin: 362.2px 291.3px;" id="el7rx4oebp7it" class="animable"></rect><rect x="366.03" y="288.75" width="5.1" height="5.1" style="fill: rgb(38, 50, 56); transform-origin: 368.58px 291.3px;" id="elc339hf5gs4e" class="animable"></rect><rect x="376.67" y="278.12" width="5.1" height="5.1" style="fill: rgb(38, 50, 56); transform-origin: 379.22px 280.67px;" id="elqgfskwhqhl" class="animable"></rect><rect x="388.57" y="278.12" width="5.1" height="5.1" style="fill: rgb(38, 50, 56); transform-origin: 391.12px 280.67px;" id="elpg6qhmduhl" class="animable"></rect><rect x="376.67" y="288.33" width="5.1" height="5.1" style="fill: rgb(38, 50, 56); transform-origin: 379.22px 290.88px;" id="elsl5tphcmezf" class="animable"></rect><rect x="388.57" y="288.33" width="5.1" height="5.1" style="fill: rgb(38, 50, 56); transform-origin: 391.12px 290.88px;" id="elylfcze4j09b" class="animable"></rect><rect x="376.67" y="298.54" width="5.1" height="5.1" style="fill: rgb(38, 50, 56); transform-origin: 379.22px 301.09px;" id="eltck36q27lm" class="animable"></rect><rect x="388.57" y="298.54" width="5.1" height="5.1" style="fill: rgb(38, 50, 56); transform-origin: 391.12px 301.09px;" id="elr9pyl95xbei" class="animable"></rect><rect x="376.67" y="308.74" width="5.1" height="5.1" style="fill: rgb(38, 50, 56); transform-origin: 379.22px 311.29px;" id="ellaf9epec94l" class="animable"></rect><rect x="388.57" y="308.74" width="5.1" height="5.1" style="fill: rgb(38, 50, 56); transform-origin: 391.12px 311.29px;" id="eldhu6yz8t5tl" class="animable"></rect><rect x="359.65" y="299.39" width="5.1" height="5.1" style="fill: rgb(38, 50, 56); transform-origin: 362.2px 301.94px;" id="elvi5nv0ocvj9" class="animable"></rect><rect x="366.03" y="299.39" width="5.1" height="5.1" style="fill: rgb(38, 50, 56); transform-origin: 368.58px 301.94px;" id="el3785rfww7lh" class="animable"></rect><rect x="359.65" y="310.02" width="5.1" height="5.1" style="fill: rgb(38, 50, 56); transform-origin: 362.2px 312.57px;" id="elz9hvgv5h24" class="animable"></rect><rect x="366.03" y="310.02" width="5.1" height="5.1" style="fill: rgb(38, 50, 56); transform-origin: 368.58px 312.57px;" id="elxcffp9f17f" class="animable"></rect><rect x="114.33" y="302.36" width="5.1" height="5.1" style="fill: rgb(38, 50, 56); transform-origin: 116.88px 304.91px;" id="el7kafu9hkj5n" class="animable"></rect><rect x="103.7" y="313" width="5.1" height="5.1" style="fill: rgb(38, 50, 56); transform-origin: 106.25px 315.55px;" id="elli4ztwpdj9f" class="animable"></rect><rect x="114.33" y="313" width="5.1" height="5.1" style="fill: rgb(38, 50, 56); transform-origin: 116.88px 315.55px;" id="elco2lg2w4yqs" class="animable"></rect><rect x="103.7" y="323.63" width="5.1" height="5.1" style="fill: rgb(38, 50, 56); transform-origin: 106.25px 326.18px;" id="el7l3o6zdj7cy" class="animable"></rect><rect x="114.33" y="323.63" width="5.1" height="5.1" style="fill: rgb(38, 50, 56); transform-origin: 116.88px 326.18px;" id="eld0fgr921vth" class="animable"></rect><rect x="103.7" y="334.26" width="5.1" height="5.1" style="fill: rgb(38, 50, 56); transform-origin: 106.25px 336.81px;" id="eldsugnva9p6g" class="animable"></rect><rect x="114.33" y="334.26" width="5.1" height="5.1" style="fill: rgb(38, 50, 56); transform-origin: 116.88px 336.81px;" id="elc1ilkf2j4e8" class="animable"></rect><polyline points="348.6 337.46 348.6 358.5 306.06 358.5 306.06 316.67 348.6 316.67 348.6 333.71" style="fill: none; stroke: rgb(38, 50, 56); stroke-miterlimit: 10; stroke-width: 1.10118px; transform-origin: 327.33px 337.585px;" id="eldl4tukpbgo" class="animable"></polyline><polyline points="426.85 352.15 426.85 358.5 384.32 358.5 384.32 336.39 393.1 336.39" style="fill: none; stroke: rgb(38, 50, 56); stroke-miterlimit: 10; stroke-width: 1.10118px; transform-origin: 405.585px 347.445px;" id="elfp6m7rxmycc" class="animable"></polyline><polyline points="398.28 336.39 426.85 336.39 426.85 348.69" style="fill: none; stroke: rgb(38, 50, 56); stroke-miterlimit: 10; stroke-width: 1.10118px; transform-origin: 412.565px 342.54px;" id="el1lsu3c6fq5n" class="animable"></polyline><polyline points="153.02 336.39 183.23 336.39 183.23 358.5 140.7 358.5 140.7 336.39 148.99 336.39" style="fill: none; stroke: rgb(38, 50, 56); stroke-miterlimit: 10; stroke-width: 1.10118px; transform-origin: 161.965px 347.445px;" id="elvq95yxfi3pq" class="animable"></polyline><polyline points="86.48 336.39 90.52 336.39 90.52 358.5 74.78 358.5 74.78 336.39 83.31 336.39" style="fill: none; stroke: rgb(38, 50, 56); stroke-miterlimit: 10; stroke-width: 1.10118px; transform-origin: 82.65px 347.445px;" id="elo3wy3viquai" class="animable"></polyline><rect x="323.93" y="316.66" width="6.8" height="41.84" style="fill: none; stroke: rgb(38, 50, 56); stroke-miterlimit: 10; stroke-width: 1.10118px; transform-origin: 327.33px 337.58px;" id="elorrlx0jf4vf" class="animable"></rect><polyline points="277.87 322.35 271.19 322.35 271.19 311.29 293.73 311.29 293.73 322.35 283.92 322.35" style="fill: none; stroke: rgb(38, 50, 56); stroke-miterlimit: 10; stroke-width: 1.10118px; transform-origin: 282.46px 316.82px;" id="elujzi8dq1xfh" class="animable"></polyline><rect x="190.87" y="303.64" width="25.94" height="9.36" style="fill: none; stroke: rgb(38, 50, 56); stroke-miterlimit: 10; stroke-width: 1.10118px; transform-origin: 203.84px 308.32px;" id="el66tzkpwq9rl" class="animable"></rect><rect x="184.51" y="303.64" width="39.62" height="54.86" style="fill: none; stroke: rgb(38, 50, 56); stroke-miterlimit: 10; stroke-width: 1.10118px; transform-origin: 204.32px 331.07px;" id="el1x7uklw3bbv" class="animable"></rect></g><g id="freepik--Tree--inject-9" class="animable" style="transform-origin: 379.888px 240.761px;"><path d="M315.61,234.78s42.64,4.22,64.25,30.65c0,0,22.83-30.62,63.84-30a82.88,82.88,0,1,0-128.1-.58Z" style="fill: rgb(218, 217, 146); transform-origin: 379.888px 182.546px;" id="el71v1ajdhwsb" class="animable"></path><g id="eldv72k8qhahn"><path d="M315.61,234.78s42.64,4.22,64.25,30.65c0,0,22.83-30.62,63.84-30a82.88,82.88,0,1,0-128.1-.58Z" style="fill: rgb(255, 255, 255); opacity: 0.5; transform-origin: 379.888px 182.546px;" class="animable"></path></g><polygon points="378.45 105.53 377.01 381.86 384.21 381.86 378.45 105.53" style="fill: rgb(38, 50, 56); transform-origin: 380.61px 243.695px;" id="elxy6n87xyurr" class="animable"></polygon><path d="M380.61,257.38s14.39-25.91,40.3-33.83c0,0-27.35,6.48-41,28.79Z" style="fill: rgb(38, 50, 56); transform-origin: 400.41px 240.465px;" id="elce982bruxdt" class="animable"></path><path d="M380.61,184s14.39-25.91,40.3-33.82c0,0-27.35,6.47-41,28.78Z" style="fill: rgb(38, 50, 56); transform-origin: 400.41px 167.09px;" id="els68e0brtc1" class="animable"></path><path d="M380.61,220.67s14.39-25.9,40.3-33.82c0,0-27.35,6.48-41,28.79Z" style="fill: rgb(38, 50, 56); transform-origin: 400.41px 203.76px;" id="elh2rj01eog0m" class="animable"></path><path d="M378.48,202.68s-13.89-25.91-38.89-33.82c0,0,26.39,6.47,39.58,28.78Z" style="fill: rgb(38, 50, 56); transform-origin: 359.38px 185.77px;" id="elkbl0ei7c9sd" class="animable"></path><path d="M378.48,238.67s-13.89-25.91-38.89-33.83c0,0,26.39,6.48,39.58,28.79Z" style="fill: rgb(38, 50, 56); transform-origin: 359.38px 221.755px;" id="elyu3ndnjufmq" class="animable"></path></g><g id="freepik--Floor--inject-9" class="animable" style="transform-origin: 253.435px 381.86px;"><line x1="39.53" y1="381.86" x2="467.34" y2="381.86" style="fill: none; stroke: rgb(38, 50, 56); stroke-miterlimit: 10; stroke-width: 1.10118px; transform-origin: 253.435px 381.86px;" id="ela1ca7hjt39j" class="animable"></line></g><g id="freepik--Character--inject-9" class="animable" style="transform-origin: 270.47px 276.52px;"><ellipse cx="270.47" cy="421.27" rx="78.18" ry="11.62" style="fill: rgb(38, 50, 56); transform-origin: 270.47px 421.27px;" id="elnsc1jr8yluj" class="animable"></ellipse><path d="M252.69,194.6l-15.8,23.08-9.48-24.76s-.25-2.59-.41-4.31-12.66-.56-12.66-.56,3.82,5.95,5.94,7.7a16.73,16.73,0,0,1,3.42,4s3.76,24,5.57,31.65,4,10.71,5.51,10.14,21.91-21.4,21.91-21.4L260,183.81Z" style="fill: rgb(255, 255, 255); stroke: rgb(38, 50, 56); stroke-linecap: round; stroke-linejoin: round; stroke-width: 1.16121px; transform-origin: 237.17px 212.708px;" id="elggpuii86ru" class="animable"></path><path d="M246.5,230.44c5.22-5.2,10.19-10.27,10.19-10.27L260,183.81l-1.3,2.39-20.54,29.5Z" style="fill: rgb(38, 50, 56); stroke: rgb(38, 50, 56); stroke-linecap: round; stroke-linejoin: round; stroke-width: 1.16121px; transform-origin: 249.08px 207.125px;" id="elaw5vcktkwkv" class="animable"></path><path d="M251.44,267.57l-1.1,12.13s-18.6,56.62-18.6,61.27,2.75,63.09,2.75,63.09l13.13,2.74,9.3-63.73,17.5-45.41s4.38,47.59,5.74,49,24.08,62.91,24.08,62.91l8.47-.54-7.11-65.1,3.22-60.27a16.49,16.49,0,0,0-.57-5.23l-3.37-12.15-.64-7.69-52-2.19Z" style="fill: rgb(38, 50, 56); stroke: rgb(38, 50, 56); stroke-linecap: round; stroke-linejoin: round; stroke-width: 1.16121px; transform-origin: 272.225px 332.985px;" id="el1t1db4nx9ns" class="animable"></path><path d="M273.61,176.87s-13.22,6.51-14.95,9.33-5,74.35-5,74.35.65,2.61,18.64,2.61h32.52s.65-64.17-.43-70.24-4.12-8.89-8-10.84S278.82,176,273.61,176.87Z" style="fill: rgb(38, 50, 56); stroke: rgb(38, 50, 56); stroke-linecap: round; stroke-linejoin: round; stroke-width: 1.16121px; transform-origin: 279.337px 219.956px;" id="el6dr6bo792ch" class="animable"></path><path d="M292.69,145.22s14.09,12.58,11.93,16.26-16.05,6.29-23.85,2-13-22.11-13-22.11S286,142,292.69,145.22Z" style="fill: rgb(178, 178, 178); stroke: rgb(38, 50, 56); stroke-linecap: round; stroke-linejoin: round; stroke-width: 1.16121px; transform-origin: 286.308px 153.537px;" id="elshsotiy14i" class="animable"></path><path d="M259.31,140s1.73-15,5-17.78,15.39-2.17,20.6-1.52,9.54,5.64,10.19,8-2.39,16.47-2.39,16.47-11.27-3.47-20.59-4.33-12.14,1.3-12.14,1.3l.21-1.3Z" style="fill: rgb(178, 178, 178); stroke: rgb(38, 50, 56); stroke-linecap: round; stroke-linejoin: round; stroke-width: 1.16121px; transform-origin: 277.251px 132.66px;" id="el6fh1b4pc0n6" class="animable"></path><path d="M270.36,179s-5,15.18-4.77,25.37-1.51,39.23-1.51,47.47-2.61,19.73-2.61,19.73l-15-2.6s5.42-31,4.55-41.62,5-39.68,5-39.68A20.06,20.06,0,0,1,270.36,179Z" style="fill: rgb(218, 217, 146); stroke: rgb(38, 50, 56); stroke-linecap: round; stroke-linejoin: round; stroke-width: 1.16121px; transform-origin: 258.415px 225.285px;" id="el0tgctxj295u" class="animable"></path><polygon points="261.87 250.41 250.5 249.26 251.01 242.55 262.39 243.71 261.87 250.41" style="fill: rgb(218, 217, 146); stroke: rgb(38, 50, 56); stroke-linecap: round; stroke-linejoin: round; stroke-width: 1.16121px; transform-origin: 256.445px 246.48px;" id="el5lp6n4eth8v" class="animable"></polygon><path d="M285.75,177.31s-3.68,9.1-6.72,16.47S267.54,225.43,265.81,235s.87,36.86.87,36.86,14.31,1.3,22.33,1.3,21.46-2.82,21.46-2.82-3.25-26.45-3.25-40.32-.44-39.68-2.39-44.23S296.16,179.91,285.75,177.31Z" style="fill: rgb(218, 217, 146); stroke: rgb(38, 50, 56); stroke-linecap: round; stroke-linejoin: round; stroke-width: 1.16121px; transform-origin: 287.843px 225.235px;" id="el3spqvuzv93v" class="animable"></path><path d="M297.25,180.37a30.1,30.1,0,0,0-10.12,14.42c-3.47,10.41-.58,27.18,11.56,28.33a13.8,13.8,0,0,0,8.47-2.4c-.17-13.89-.76-31.3-2.33-35C303.74,183.21,301.15,181.68,297.25,180.37Z" style="fill: rgb(38, 50, 56); stroke: rgb(38, 50, 56); stroke-linecap: round; stroke-linejoin: round; stroke-width: 1.16121px; transform-origin: 296.462px 201.753px;" id="el6lwsz4neumt" class="animable"></path><polygon points="297.34 251.44 273.26 251.79 273.26 245.08 297.34 244.74 297.34 251.44" style="fill: rgb(218, 217, 146); stroke: rgb(38, 50, 56); stroke-linecap: round; stroke-linejoin: round; stroke-width: 1.16121px; transform-origin: 285.3px 248.265px;" id="eln68syabpe38" class="animable"></polygon><polygon points="250.96 187.51 273.04 177.56 272.6 166.52 253.56 162.19 230.4 167.82 229.97 180.59 250.96 187.51" style="fill: rgb(82, 82, 82); stroke: rgb(38, 50, 56); stroke-linecap: round; stroke-linejoin: round; stroke-width: 1.16121px; transform-origin: 251.505px 174.85px;" id="el4l40ojhf6om" class="animable"></polygon><polygon points="273.04 177.56 272.6 166.52 272.29 166.45 250.75 173.44 250.95 187.5 250.96 187.51 273.04 177.56" style="fill: rgb(38, 50, 56); stroke: rgb(38, 50, 56); stroke-linecap: round; stroke-linejoin: round; stroke-width: 1.16121px; transform-origin: 261.895px 176.98px;" id="elwgp1e4kvn3a" class="animable"></polygon><polygon points="251.23 187.39 250.75 173.44 231.2 167.62 230.4 167.82 229.97 180.59 250.96 187.51 251.23 187.39" style="fill: rgb(82, 82, 82); stroke: rgb(38, 50, 56); stroke-linecap: round; stroke-linejoin: round; stroke-width: 1.16121px; transform-origin: 240.6px 177.565px;" id="ellxvz2lxunr" class="animable"></polygon><path d="M203,167.68s4.2-.51,5.07-.51,19.26,2.16,19.26,2.16l11.9,1.3s3.9.65,5.2,2.6.65,6.06.21,8-17.09,12.12-17.09,12.12Z" style="fill: rgb(38, 50, 56); stroke: rgb(38, 50, 56); stroke-linecap: round; stroke-linejoin: round; stroke-width: 1.16121px; transform-origin: 224.099px 180.26px;" id="eldwuo4mfuoua" class="animable"></path><path d="M226.81,193.05,203,187.6a2.32,2.32,0,0,1-1.73-2.13V169a1.34,1.34,0,0,1,1.73-1.34l23.77,5.46a2.3,2.3,0,0,1,1.73,2.13v16.45A1.33,1.33,0,0,1,226.81,193.05Z" style="fill: rgb(82, 82, 82); stroke: rgb(38, 50, 56); stroke-linecap: round; stroke-linejoin: round; stroke-width: 1.16121px; transform-origin: 214.885px 180.351px;" id="elj4k14s1ixwq" class="animable"></path><path d="M223.26,189.64l-16.66-3.83a2.31,2.31,0,0,1-1.74-2.13V172.43a1.34,1.34,0,0,1,1.74-1.33l16.66,3.82a2.31,2.31,0,0,1,1.73,2.13v11.26A1.33,1.33,0,0,1,223.26,189.64Z" style="fill: rgb(38, 50, 56); stroke: rgb(38, 50, 56); stroke-linecap: round; stroke-linejoin: round; stroke-width: 1.16121px; transform-origin: 214.925px 180.37px;" id="el10b36ui514xq" class="animable"></path><path d="M259.31,140s-.44,11.49.86,19.08,2.6,12.57,5.64,12.57a19.89,19.89,0,0,0,5.64-.87L270.36,179s-1.3,1.08-.86,4.55,2.38,5,5.63,5,8.89-6.29,8.89-6.29l1.73-5,.87-20.82s5.64-3.9,6.29-7.58a4.9,4.9,0,0,0-2-5.21A45.4,45.4,0,0,0,259.31,140Z" style="fill: rgb(255, 255, 255); stroke: rgb(38, 50, 56); stroke-linecap: round; stroke-linejoin: round; stroke-width: 1.16121px; transform-origin: 276.144px 163.608px;" id="elv08dakrxd2a" class="animable"></path><path d="M289.91,143.15a38.91,38.91,0,0,0-5.74-2.28c-.05,1.42-.77,5.65,1.15,5.65C286.82,146.52,289,144,289.91,143.15Z" style="fill: rgb(38, 50, 56); stroke: rgb(38, 50, 56); stroke-linecap: round; stroke-linejoin: round; stroke-width: 1.16121px; transform-origin: 286.953px 143.695px;" id="elyj98c8cfw3f" class="animable"></path><path d="M271,144.14a8.89,8.89,0,0,1,10-.87" style="fill: none; stroke: rgb(38, 50, 56); stroke-linecap: round; stroke-linejoin: round; stroke-width: 1.16121px; transform-origin: 276px 143.133px;" id="elvu9jvyc31j" class="animable"></path><path d="M274.48,147a6.41,6.41,0,0,0,5.64,0" style="fill: none; stroke: rgb(38, 50, 56); stroke-linecap: round; stroke-linejoin: round; stroke-width: 1.16121px; transform-origin: 277.3px 147.327px;" id="elkjahy4vdabh" class="animable"></path><polyline points="267.11 146.09 264.94 155.41 270.36 155.19" style="fill: none; stroke: rgb(38, 50, 56); stroke-linecap: round; stroke-linejoin: round; stroke-width: 1.16121px; transform-origin: 267.65px 150.75px;" id="elzqcklrf0eh8" class="animable"></polyline><path d="M266.68,158.88s5.85,2.17,10.4-3.69" style="fill: none; stroke: rgb(38, 50, 56); stroke-linecap: round; stroke-linejoin: round; stroke-width: 1.16121px; transform-origin: 271.88px 157.231px;" id="elfeuvup61e1k" class="animable"></path><line x1="275.35" y1="154.54" x2="277.95" y2="156.06" style="fill: none; stroke: rgb(38, 50, 56); stroke-linecap: round; stroke-linejoin: round; stroke-width: 1.16121px; transform-origin: 276.65px 155.3px;" id="eldq0haw0hi2" class="animable"></line><path d="M271.45,170.8s9.1-3.47,12.14-8.89" style="fill: none; stroke: rgb(38, 50, 56); stroke-linecap: round; stroke-linejoin: round; stroke-width: 1.16121px; transform-origin: 277.52px 166.355px;" id="el3ci2yofta3n" class="animable"></path><path d="M297.24,183.38a23.3,23.3,0,0,0-7.61,5c-3.6,3.58-18.5,27.29-18.5,27.29s-29.87-23.06-30.24-24.77-1.47-1.83-1.69-4.42-.5-10.62-.63-12.13-2.43-2.84-3.76-3.15-7-.26-8.46.3,1,1,1.9,1.79,2.2,17.66,4.35,19.86a27.19,27.19,0,0,0,3.54,3.17s20.83,29.08,25.68,34.75,10.79,6.45,11.77,5.28,29.53-30.66,29.53-30.66" style="fill: rgb(38, 50, 56); stroke: rgb(38, 50, 56); stroke-linecap: round; stroke-linejoin: round; stroke-width: 1.16121px; transform-origin: 264.509px 203.913px;" id="elzhmfg1m66wm" class="animable"></path><path d="M274.15,210.94c-1.81,2.83-3,4.75-3,4.75s-29.87-23.06-30.24-24.77-1.47-1.83-1.69-4.42-.5-10.62-.63-12.13-2.43-2.84-3.76-3.15-7-.26-8.46.3,1,1,1.9,1.79,2.2,17.66,4.35,19.86a27.19,27.19,0,0,0,3.54,3.17s20.83,29.08,25.68,34.75,10.79,6.45,11.77,5.28c.44-.52,6.29-6.6,12.67-13.21Z" style="fill: rgb(255, 255, 255); stroke: rgb(38, 50, 56); stroke-linecap: round; stroke-linejoin: round; stroke-width: 1.16121px; transform-origin: 256.099px 203.933px;" id="ela3l6lobwq7" class="animable"></path><path d="M228.16,171.2A5.2,5.2,0,0,1,231,173c.78,1.28,1.39,5.24,1.39,5.24" style="fill: rgb(255, 255, 255); stroke: rgb(38, 50, 56); stroke-linecap: round; stroke-linejoin: round; stroke-width: 1.16121px; transform-origin: 230.275px 174.72px;" id="elffxj6s170w" class="animable"></path><path d="M232.44,171.23a3.78,3.78,0,0,1,1.65,2,36.46,36.46,0,0,1,1.07,4.59" style="fill: rgb(255, 255, 255); stroke: rgb(38, 50, 56); stroke-linecap: round; stroke-linejoin: round; stroke-width: 1.16121px; transform-origin: 233.8px 174.525px;" id="eleq59s5rq76d" class="animable"></path><path d="M235.55,171.49a7.46,7.46,0,0,1,1.63,3.34c.14,1.6.27,3.06.27,3.06" style="fill: rgb(255, 255, 255); stroke: rgb(38, 50, 56); stroke-linecap: round; stroke-linejoin: round; stroke-width: 1.16121px; transform-origin: 236.5px 174.69px;" id="elv831oeg3fbm" class="animable"></path><path d="M266.33,146.82c0,3.35-2.33,6.06-5.2,6.06s-5.19-2.71-5.19-6.06,2.32-6.06,5.19-6.06S266.33,143.48,266.33,146.82Z" style="fill: rgb(38, 50, 56); stroke: rgb(38, 50, 56); stroke-linecap: round; stroke-linejoin: round; stroke-width: 1.16121px; transform-origin: 261.135px 146.82px;" id="el0caublo1nmzs" class="animable"></path><polygon points="252.69 154.62 256.15 163.92 260.48 165 255.94 152.67 250.96 152.02 252.69 154.62" style="fill: rgb(38, 50, 56); stroke: rgb(38, 50, 56); stroke-linecap: round; stroke-linejoin: round; stroke-width: 1.16121px; transform-origin: 255.72px 158.51px;" id="el6gsqh5jgwg8" class="animable"></polygon><path d="M213.74,143.36,225,140.85a3.6,3.6,0,0,1,4.24,2.47l2.06,6.75-17.53,1.52Z" style="fill: rgb(82, 82, 82); stroke: rgb(38, 50, 56); stroke-linecap: round; stroke-linejoin: round; stroke-width: 1.16121px; transform-origin: 222.52px 146.176px;" id="elc3idw5t59aq" class="animable"></path><path d="M211.94,143.28l-17.77,5.56a2.25,2.25,0,0,0-1.54,2.51h0a2.24,2.24,0,0,0,2.33,1.86l18.59-.94a4.6,4.6,0,0,0,4.33-5.17h0A4.59,4.59,0,0,0,211.94,143.28Z" style="fill: rgb(38, 50, 56); stroke: rgb(38, 50, 56); stroke-linecap: round; stroke-linejoin: round; stroke-width: 1.16121px; transform-origin: 205.258px 148.14px;" id="elk3r3bk5z0i" class="animable"></path><polygon points="234.51 155.91 241.22 166.95 245.55 168.47 237.54 155.91 234.51 155.91" style="fill: rgb(38, 50, 56); stroke: rgb(38, 50, 56); stroke-linecap: round; stroke-linejoin: round; stroke-width: 1.16121px; transform-origin: 240.03px 162.19px;" id="el4yhz43y456" class="animable"></polygon><path d="M257.24,144.44l-8.44,2.38v2.38l-10.61,1.52L234.73,147l-15.14,1.72a2.3,2.3,0,0,0-2,2.2l-.09,3.34a2.26,2.26,0,0,0,2,2.32l11.87,1.62a1.89,1.89,0,0,0,.75,0l18.67-4.67,1.95,1.08,7.14-2.38S261.57,146.82,257.24,144.44Z" style="fill: rgb(82, 82, 82); stroke: rgb(38, 50, 56); stroke-linecap: round; stroke-linejoin: round; stroke-width: 1.16121px; transform-origin: 238.852px 151.339px;" id="elq22708qved" class="animable"></path><path d="M217.56,151.41l-.08,2.89a2.26,2.26,0,0,0,2,2.32l10,1.37a2,2,0,0,0,2.25-2v-3.93a2,2,0,0,0-1.8-2l-9.85-.91A2.28,2.28,0,0,0,217.56,151.41Z" style="fill: rgb(38, 50, 56); stroke: rgb(38, 50, 56); stroke-linecap: round; stroke-linejoin: round; stroke-width: 1.16121px; transform-origin: 224.604px 153.572px;" id="el6oqh14uz1n" class="animable"></path><path d="M304.24,409.53s-6,10.12-7.12,13.41,3.56,4.37,5.75,4.37,8.75-.27,9.84-3,0-15.31,0-15.31Z" style="fill: rgb(255, 255, 255); stroke: rgb(38, 50, 56); stroke-linecap: round; stroke-linejoin: round; stroke-width: 1.16121px; transform-origin: 305.072px 418.155px;" id="elrl5zlr3lh3c" class="animable"></path><path d="M312.71,424.3a10.21,10.21,0,0,0,.44-2.88,11.85,11.85,0,0,1-9.58,3.23,13.74,13.74,0,0,1-6.44-1.73v0c-1.09,3.28,3.56,4.37,5.75,4.37S311.62,427,312.71,424.3Z" style="fill: rgb(255, 255, 255); stroke: rgb(38, 50, 56); stroke-linecap: round; stroke-linejoin: round; stroke-width: 1.16121px; transform-origin: 305.058px 424.355px;" id="eltgg44rl8w9" class="animable"></path><path d="M234.49,404.06s-6.57,5.2-9.3,7.11-8.76,4.38-9,6.29,7.11,1.65,12.31,1.1,15.86-.82,18.32-1.64,1.65-3.56,1.37-6-.54-4.1-.54-4.1Z" style="fill: rgb(255, 255, 255); stroke: rgb(38, 50, 56); stroke-linecap: round; stroke-linejoin: round; stroke-width: 1.16121px; transform-origin: 232.364px 411.51px;" id="elgdupvqr6svf" class="animable"></path><path d="M248.46,414.94c-7.22,1.24-11.84-.25-21.12,1.29-5.64.95-8.81.61-10.5.13a2.13,2.13,0,0,0-.68,1.1c-.27,1.92,7.11,1.65,12.31,1.1s15.86-.82,18.32-1.64A2.31,2.31,0,0,0,248.46,414.94Z" style="fill: rgb(255, 255, 255); stroke: rgb(38, 50, 56); stroke-linecap: round; stroke-linejoin: round; stroke-width: 1.16121px; transform-origin: 232.306px 416.952px;" id="elgvocmq4emzm" class="animable"></path></g><defs>     <filter id="active" height="200%">         <feMorphology in="SourceAlpha" result="DILATED" operator="dilate" radius="2"></feMorphology>                <feFlood flood-color="#32DFEC" flood-opacity="1" result="PINK"></feFlood>        <feComposite in="PINK" in2="DILATED" operator="in" result="OUTLINE"></feComposite>        <feMerge>            <feMergeNode in="OUTLINE"></feMergeNode>            <feMergeNode in="SourceGraphic"></feMergeNode>        </feMerge>    </filter>    <filter id="hover" height="200%">        <feMorphology in="SourceAlpha" result="DILATED" operator="dilate" radius="2"></feMorphology>                <feFlood flood-color="#ff0000" flood-opacity="0.5" result="PINK"></feFlood>        <feComposite in="PINK" in2="DILATED" operator="in" result="OUTLINE"></feComposite>        <feMerge>            <feMergeNode in="OUTLINE"></feMergeNode>            <feMergeNode in="SourceGraphic"></feMergeNode>        </feMerge>            <feColorMatrix type="matrix" values="0   0   0   0   0                0   1   0   0   0                0   0   0   0   0                0   0   0   1   0 "></feColorMatrix>    </filter></defs></svg>