<?xml version="1.0" ?><svg viewBox="0 0 64 64" xmlns="http://www.w3.org/2000/svg"><g id="Product_launching"><path d="M53.874,12.2065a3.4864,3.4864,0,0,0-.4844-1.268l-4.1821-6.565a3.2867,3.2867,0,0,0-2.772-1.5208H38.0234l5.697,9.3538Z"/><path d="M25.772,2.8527H18.8911a3.2862,3.2862,0,0,0-2.772,1.5208l-4.1821,6.565a3.4886,3.4886,0,0,0-.4846,1.268h9.9761Z"/><path d="M33.76,12.2065a1.25,1.25,0,0,1,0,2.5H24.009l7.177,20.8086a1.5207,1.5207,0,0,0,2.8748.001l7.5781-21.9214L35.0964,2.8527H28.5283l-4.3437,9.3538Z"/><path d="M53.1619,15.0273a3.4177,3.4177,0,0,0,.2192-.3208H43.894L36.9609,33.819Z"/><path d="M11.9453,14.7065a3.5365,3.5365,0,0,0,.2192.3208L28.2722,33.79,21.35,14.7065Z"/><path d="M16.8157,40.4125H10.9712a.93.93,0,0,0-.93.93V61.2885a.93.93,0,0,0,.93.93h5.8445a2.0268,2.0268,0,0,0,2.0268-2.0269V42.4394A2.0269,2.0269,0,0,0,16.8157,40.4125Z"/><path d="M53.7527,42.6957a3.4963,3.4963,0,0,0-2.93-1.5791h-2.29a5.0557,5.0557,0,0,0-4.6865,3.1358,5.0141,5.0141,0,0,1-.8645,1.3813,7.6849,7.6849,0,0,1-6.2063,3.6353H29.9885a1.35,1.35,0,0,1,0-2.6992h6.752A4.4938,4.4938,0,0,0,39.5447,45.48a4.7153,4.7153,0,0,0-4.7207-4.3638H29.8454a7.0006,7.0006,0,0,0-4.9765,2.0567l-.126.125a6.3514,6.3514,0,0,1-3.2012,1.7287v13.54h17.97a13.8591,13.8591,0,0,0,12.7461-8.3955l1.788-4.1621A3.4965,3.4965,0,0,0,53.7527,42.6957Z"/></g></svg>